{"title":"Management.2008.DVDRip.XViD.AC3(5.1)SWESUB.avi","uid":5510704,"size":1469793998,"categoryP":"video","categoryS":"movies","magnet":"?xt=urn:btih:be7e0c43efbb918739eedd6fded042a1ecb6c04e&amp;dn=Management.2008.DVDRip.XViD.AC3%285.1%29SWESUB.avi&amp;tr=udp%3A%2F%2Ftracker.openbittorrent.com%3A80&amp;tr=udp%3A%2F%2Fopen.demonii.com%3A1337&amp;tr=udp%3A%2F%2Ftracker.coppersurfer.tk%3A6969&amp;tr=udp%3A%2F%2Fexodus.desync.com%3A6969","seeders":0,"leechers":1,"uploader":"Zen_Bud","files":-1,"time":1272038200,"description":"General\nComplete name                    : Management.avi\nFormat                           : AVI\nFile size                        : 1.37 GiB\nDuration                         : 1h 29mn\nOverall bit rate                 : 2 187 Kbps\n\nVideo\nID                               : 0\nFormat                           : MPEG-4 Visual\nCodec ID/Hint                    : XviD\nDuration                         : 1h 29mn\nBit rate                         : 1 728 Kbps\nWidth                            : 720 pixels\nHeight                           : 552 pixels\nDisplay aspect ratio             : 1.855\nResolution                       : 8 bits\nColorimetry                      : 4:2:0\nScan type                        : Progressive\nBits/(Pixel*Frame)               : 0.174\nStream size                      : 1.08 GiB (79%)\nWriting library                  : XviD 1.1.2 (UTC 2006-11-01)\n\nAudio\nID                               : 1\nFormat                           : AC-3\nCodec ID                         : 2000\nDuration                         : 1h 29mn\nBit rate mode                    : Constant\nBit rate                         : 448 Kbps\nChannel(s)                       : 6 channels\nChannel positions                : Front: L C R, Side: L R, LFE\nSampling rate                    : 48.0 KHz\nStream size                      : 287 MiB (20%)\nInterleave, preload duration     : 512 ms\n\n","torrent":{"xt":"urn:btih:be7e0c43efbb918739eedd6fded042a1ecb6c04e","amp;dn":"Management.2008.DVDRip.XViD.AC3%285.1%29SWESUB.avi","amp;tr":["udp%3A%2F%2Ftracker.openbittorrent.com%3A80","udp%3A%2F%2Fopen.demonii.com%3A1337","udp%3A%2F%2Ftracker.coppersurfer.tk%3A6969","udp%3A%2F%2Fexodus.desync.com%3A6969"],"infoHash":"be7e0c43efbb918739eedd6fded042a1ecb6c04e","infoHashBuffer":{"type":"Buffer","data":[190,126,12,67,239,187,145,135,57,238,221,111,222,208,66,161,236,182,192,78]},"announce":[],"urlList":[]}}